control3min_grf.mot
version=1
nRows=12
nColumns 19
inDegrees=yes
endheader
time	1_ground_force_vx	1_ground_force_vy	1_ground_force_vz	1_ground_force_px	1_ground_force_py	1_ground_force_pz	1_ground_torque_x	1_ground_torque_y	1_ground_torque_z	2_ground_force_vx	2_ground_force_vy	2_ground_force_vz	2_ground_force_px	2_ground_force_py	2_ground_force_pz	2_ground_torque_x	2_ground_torque_y	2_ground_torque_z
            0.005000	            0.321348	            3.783675	            0.473995	           -0.141005	            0.006167	           -0.388354	            0.259929	           -0.111190	            0.125215	            0.088801	            1.291385	           -0.558578	           -0.181944	            0.005857	           -0.706169	           -0.093608	           -0.113032	           -0.207717
            0.005500	            0.459285	            3.422580	            0.609675	           -0.141005	            0.006167	           -0.388354	            0.254177	           -0.147855	            0.074555	            0.270136	            2.950066	           -0.740456	           -0.181944	            0.005857	           -0.706169	           -0.168735	           -0.095070	           -0.019116
            0.006000	            0.046356	            3.423091	            0.473132	           -0.141005	            0.006167	           -0.388354	            0.241223	           -0.129565	            0.057073	            0.274789	            1.661028	           -0.745056	           -0.181944	            0.005857	           -0.706169	           -0.206243	           -0.141595	           -0.264321
            0.006500	            0.138498	            3.422322	            0.656328	           -0.141005	            0.006167	           -0.388354	            0.327046	           -0.166070	           -0.033378	            0.270013	            2.951070	           -1.022025	           -0.181944	            0.005857	           -0.706169	           -0.131325	           -0.066106	           -0.150982
            0.007000	            0.183834	            4.324249	            0.522511	           -0.141005	            0.006167	           -0.388354	            0.163665	           -0.148082	            0.081816	            0.182357	            1.292895	           -0.887114	           -0.181944	            0.005857	           -0.706169	           -0.168879	           -0.066376	           -0.113265
            0.007500	            0.138090	            3.783443	            0.520306	           -0.141005	            0.006167	           -0.388354	            0.238994	           -0.101711	            0.042296	            0.321680	            1.660862	           -0.651219	           -0.181944	            0.005857	           -0.706169	           -0.206543	           -0.047405	           -0.169733
            0.008000	            0.275424	            3.603597	            0.427480	           -0.141005	            0.006167	           -0.388354	            0.280676	           -0.120291	            0.085580	            0.039772	            1.845167	           -0.978939	           -0.181944	            0.005857	           -0.706169	           -0.056156	           -0.084404	           -0.245332
            0.008500	            0.000268	            4.144341	            0.430481	           -0.141005	            0.006167	           -0.388354	            0.130208	           -0.074390	            0.111999	            0.134260	            1.660353	           -0.698068	           -0.181944	            0.005857	           -0.706169	           -0.112412	           -0.094598	           -0.094540
            0.009000	            0.138285	            3.963316	            0.612791	           -0.141005	            0.006167	           -0.388354	            0.216436	           -0.139088	            0.136176	            0.366495	            2.213811	           -0.743124	           -0.181944	            0.005857	           -0.706169	           -0.093489	           -0.141525	           -0.170118
            0.009500	            0.138384	            3.422519	            0.610472	           -0.141005	            0.006167	           -0.388354	            0.310594	           -0.120503	            0.117243	            0.322283	            1.477216	           -0.792661	           -0.181944	            0.005857	           -0.706169	           -0.074832	           -0.103713	           -0.151141
            0.010000	            0.183819	            3.783649	            0.474336	           -0.141005	            0.006167	           -0.388354	            0.203376	           -0.166321	            0.025264	            0.415380	            1.661201	           -0.651259	           -0.181944	            0.005857	           -0.706169	           -0.131104	           -0.122956	           -0.113484
            0.010500	            0.000576	            4.324017	            0.568822	           -0.141005	            0.006167	           -0.388354	            0.180558	           -0.157566	            0.111511	            0.131519	            2.397616	           -0.883152	           -0.181944	            0.005857	           -0.706169	           -0.168666	           -0.123159	           -0.094618
